<?xml version="1.0" encoding="utf-8"?>
<!-- Generator: Adobe Illustrator 22.0.0, SVG Export Plug-In . SVG Version: 6.00 Build 0)  -->
<svg version="1.1" id="Layer_1" xmlns="http://www.w3.org/2000/svg" xmlns:xlink="http://www.w3.org/1999/xlink" x="0px" y="0px"
	 viewBox="0 0 395.8 267.3" style="enable-background:new 0 0 395.8 267.3;" xml:space="preserve">
<style type="text/css">
	.st0{fill:#FFFFFF;}
</style>
<g>
	<path class="st0" d="M292.4,155.9c0.2,0,0.5,0,0.8-0.2c4.8-1.9,2.1-14.9,1.4-18.9c-0.7-3.5-2.9-17.8-7.4-16.3
		c-4.6,1.5-2.4,14.4-1.5,19.1C286.2,141.8,288.3,155.9,292.4,155.9z"/>
	<path class="st0" d="M167.2,144.9c-7.3,0.7-3.9,19-2.9,24.3c0.9,4.7,3.8,24.1,10.7,24.1c0.2,0,0.4,0,0.6-0.1
		c6.6-1.1,3.5-20.5,2.8-24.8C177.6,163.7,175,144.2,167.2,144.9z"/>
	<path class="st0" d="M385.7,183.1c-4.4,0-13.9,1.9-16.1,2.2c29.3-24.3,36.1-63.4,9.8-92c-22.3-24.8-58.6-32.5-90.5-34.5
		c-29.1-1.9-58.3,1.1-86.6,7.9c-21.7-7.9-43.1-15.2-65.9-19.8C129.2,31.9,120.5,17.4,112,3c-2.8-5-3.7-3-5.9,0.1
		c-8,11.8-16,24.2-23.1,36.5C59.5,38,35.7,38,11.3,40.5c-12.7,1.7-15,2.6-5.2,9.2c11.7,7.8,36.4,21.9,54.3,33.4
		c-5.1,10.6-14.1,30.9-17.4,41.4C18.3,145.8-5.6,178.8,5,213.1c8.3,26.7,35,44.2,71.6,51c33.6,6.2,76.1,3.5,119.6-9.6
		c31.5-9.5,62.2-23.8,88.3-43.9c2.8,2.3,7,4.8,10.5,6.9c-9,15.1-17.9,29.5-27.9,44c-1.8,2.6-3.9,5.4,1.9,3.6
		c19.5-6.3,37.3-13.6,56.1-23.9c6.7,8.1,16.1,17.5,24.9,24.3c1,0.8,2.6,1.1,3.1-1.2c2.6-14.2,2.8-30.9,2-44.4
		c11.6-9.9,22.2-19.9,30.5-33C387.8,183.4,386.6,183.1,385.7,183.1z M58.6,124c4.8-17,13.1-33.1,19.2-45.7
		C63.5,68.6,51.1,61.2,35.1,53c-0.4-0.2-0.3-0.6,0.1-0.6c18.8-0.6,37.4-0.1,55.5,1.6c5.2-10,11.3-19.3,17.2-28.5
		c0.1-0.1,0.2-0.2,0.4-0.2c0.1,0,0.2,0,0.3,0.2c7.3,11.1,13.4,22.2,18.3,33.6c16.2,3,32.1,7.1,47.8,12.3c0.4,0.1,0.4,0.5,0,0.6
		c-13.1,4.1-26.1,8.6-38.8,13.5c3.8,15.3,5.3,30.8,4.5,46.6c0,0.4-0.3,0.6-0.6,0.2c-10.5-12.2-22.1-23.4-34.4-33.7
		c-16,7.5-31.4,16.1-46.2,25.9C58.7,124.6,58.4,124.4,58.6,124z M267.8,182.2c-5.3,2.3-10.7,4.5-16.1,6.6
		c-2.9-16.9-5.7-33.8-8.5-50.7c-2.8,0.6-5.5,1.2-8.3,1.8l-2.9-17.4c10.9-2,21.8-4.3,32.5-7c0.9,5.3,1.8,10.7,2.7,16
		c-2.5,0.8-5.1,1.6-7.6,2.3C262.4,150,265,166.1,267.8,182.2z M232.6,140.2c-2.9,0.6-5.7,1.2-8.6,1.7c2.9,17.7,5.9,35.5,8.9,53.2
		c-6,1.9-12,3.8-18,5.6c-3.2-18.5-6.3-37.1-9.3-55.6c-3.1,0.5-6.3,0.9-9.4,1.4c-1-6.3-2.1-12.6-3.1-18.9c12.3-1.3,24.5-2.9,36.7-4.8
		L232.6,140.2z M199.3,167.8c2.6,17-0.3,39.4-20.5,43.4c-22.9,4.5-34.2-19.9-37.3-38.2c-3.1-17.9-0.6-43.5,23.1-44.5
		c0.2,0,0.5,0,0.7,0c0,0,0,0,0,0C186.9,128.5,196.5,148.7,199.3,167.8z M148,213.8c-14.4,0.6-28.9,0.6-43.3-0.4
		c-5.2-28.5-10.5-57.1-15.5-85.7c8.6,0.7,17.3,1.3,26,1.7c3.8,21.3,7.5,42.7,11.4,64c6,0,11.9,0,17.9-0.3
		C145.6,200.1,146.8,207,148,213.8z M192.4,241.4C109.4,266.5,31.3,252,18,209.1c-7.4-23.8,6.7-51.3,34.8-75.4
		c0.3-0.2,0.6-0.3,0.8-0.3c0.5,0,0.7,0.6,0.3,1.3c-8.3,16.2-10.5,32.6-5,47.6c16.3,44.9,94.6,60.1,174.8,33.9
		c31-10.1,57.7-24.9,77.9-41.8c0.7-0.6,1,0,0.6,0.5C280.5,201.8,241,226.8,192.4,241.4z M282.1,109.4c2.8-1.4,5.4-2,7.8-2
		c10.4,0,16.9,11.8,18.5,23.5c2.4,15.3,1.1,31-12.8,38.4c-15.7,8.3-22.6-9.7-24.7-22.1C268.8,134.4,268,116.4,282.1,109.4z
		 M360.6,196.2c-6,6.6-12.8,12.3-19.8,17.8c0.9,7.5,1.3,16.6,0.4,24.8c0,0.2-0.2,0.2-0.3,0c-4.3-5.4-8.9-10.5-13.9-14.9
		c-8.1,5.4-18.2,11.5-28,15.9c-1.8,0.8-1.7,0-1-1.1c5.2-8.6,10.6-16.7,15-25.7c-7.3-5.2-12.8-8.2-18.8-12c-0.7-0.5-0.4-0.9,0.2-0.9
		c7.5-0.1,16.1-0.3,24.8-0.9c2.8-7.4,5.5-15.6,8.6-23.3c0.4-0.8,0.7-1.2,0.9-1.2c0.3,0,0.6,0.4,0.9,1.1c3.1,7,5.4,13.8,7.9,22.1
		c7-0.5,15.5-1.6,22.7-2.4C360.6,195.5,361,195.7,360.6,196.2z M342.9,186.7c-0.3,0.2-1,0.2-0.6-0.6c35.5-88.1-66.2-109-183.6-88.5
		c-1.2,0.2-1.8-0.7-0.4-1.4c24.4-11.3,51.5-18.4,78.7-22.1c10.7-1.4,22.5-2.2,34.6-2.2c0,0,0,0,0,0c20.4,0,41.7,2.3,60.5,8.3
		C394.1,99.8,399.3,158,342.9,186.7z"/>
</g>
</svg>
